<?xml version="1.0" standalone="no"?>
<!DOCTYPE svg PUBLIC "-//W3C//DTD SVG 20010904//EN"
 "http://www.w3.org/TR/2001/REC-SVG-20010904/DTD/svg10.dtd">
<svg version="1.0" xmlns="http://www.w3.org/2000/svg"
 width="24.000000pt" height="24.000000pt" viewBox="0 0 24.000000 24.000000"
 preserveAspectRatio="xMidYMid meet">

<g transform="translate(0.000000,24.000000) scale(0.100000,-0.100000)"
fill="#000000" stroke="none">
<path d="M128 227 c-9 -7 -20 -26 -24 -43 -8 -32 -50 -73 -76 -74 -13 0 -18
-8 -18 -30 0 -37 7 -38 20 -4 9 22 13 24 26 13 8 -7 13 -21 11 -30 -3 -10 2
-26 10 -36 13 -17 14 -17 9 2 -5 15 6 32 38 64 27 26 46 39 50 32 4 -6 2 -11
-3 -11 -6 0 -11 -5 -11 -12 0 -6 9 -3 20 7 15 14 17 21 9 32 -8 9 -8 13 -1 13
6 0 14 -4 17 -10 3 -5 11 -10 18 -10 21 0 -11 23 -35 25 -15 1 -24 9 -26 24
-3 19 0 21 25 15 l28 -7 -24 27 c-27 29 -38 31 -63 13z"/>
<path d="M95 50 c-4 -7 0 -19 9 -28 20 -21 26 -13 10 16 -8 16 -14 20 -19 12z"/>
</g>
</svg>
