<?xml version="1.0" encoding="utf-8"?>
<!-- Generator: Adobe Illustrator 24.3.0, SVG Export Plug-In . SVG Version: 6.00 Build 0)  -->
<svg version="1.1" id="Layer_1" xmlns="http://www.w3.org/2000/svg" xmlns:xlink="http://www.w3.org/1999/xlink" x="0px" y="0px"
	 viewBox="0 0 325 325" enable-background="new 0 0 325 325" xml:space="preserve">
<g id="at_1_">
	<g>
		<path fill="#EEEEEE" d="M104.74,170.309c0,0,13.894,26.987-7.214,41.416c0,0-6.68-1.337-7.482,5.877
			c0,0-0.267,21.11-12.558,39.012c0,0-0.535,2.137,1.602,3.206c0,0,7.482,8.284,7.749,13.094c0,0,1.489,6.145,6.49,2.404
			l2.061-6.413c0,0-10.421-1.069-10.154-10.955c0,0,3.741-27.254,15.765-40.348c0,0,16.032-5.343,28.857-25.384
			c0,0,6.412-24.581-14.696-33.132C115.161,159.087,104.205,158.552,104.74,170.309z"/>
		<g>
			<g>
				<path fill="#717070" d="M105.274,171.645c2.154,3.115,3.605,6.693,4.528,10.404c0.937,3.713,1.242,7.646,0.723,11.531
					c-0.12,0.972-0.333,1.931-0.542,2.889c-0.274,0.945-0.529,1.894-0.902,2.807c-0.721,1.826-1.606,3.602-2.79,5.164
					c-2.257,3.196-5.367,5.673-8.766,7.285c2.691-2.645,5.089-5.409,6.79-8.54c1.701-3.119,2.789-6.499,3.237-10.006
					c0.479-3.503,0.387-7.103-0.043-10.705C107.052,178.872,106.294,175.269,105.274,171.645z"/>
			</g>
			<g>
				<path fill="#717070" d="M129.857,192.219c-1.258,3.079-2.995,5.913-4.921,8.6c-1.929,2.69-4.094,5.221-6.511,7.515
					c-2.432,2.274-5.065,4.373-7.993,6.026c-2.926,1.633-6.126,2.882-9.433,3.242c2.941-1.561,5.593-3.294,8.144-5.196
					c2.516-1.951,4.886-4.066,7.215-6.245c2.324-2.188,4.537-4.507,6.78-6.828L129.857,192.219z"/>
			</g>
			<g>
				<path fill="#717070" d="M90.044,217.602c0.305,3.447,0.112,6.892-0.293,10.304c-0.402,3.415-1.065,6.804-2.009,10.126
					c-0.969,3.313-2.157,6.583-3.765,9.666c-1.613,3.07-3.584,6.006-6.118,8.364c1.528-3.105,2.808-6.174,3.974-9.304
					c1.118-3.148,2.088-6.337,3.025-9.547c0.926-3.215,1.742-6.468,2.601-9.732C88.285,224.208,89.113,220.925,90.044,217.602z"/>
			</g>
			<g>
				<path fill="#717070" d="M79.089,259.82c1.334,0.519,2.428,1.318,3.427,2.203c0.989,0.895,1.859,1.91,2.59,3.035
					c0.732,1.121,1.339,2.347,1.701,3.689c0.348,1.325,0.521,2.803,0.031,4.167c-0.76-1.204-1.475-2.174-2.177-3.187
					c-0.691-1.005-1.399-1.998-2.067-3.031c-0.667-1.033-1.316-2.096-1.923-3.216C80.071,262.351,79.509,261.18,79.089,259.82z"/>
			</g>
			<g>
				<path fill="#717070" d="M85.769,255.012c0.229,1.687,0.511,3.193,0.935,4.587c0.428,1.389,1.012,2.628,1.815,3.706
					c0.155,0.302,0.428,0.52,0.633,0.788l0.319,0.4l0.382,0.35c0.256,0.234,0.488,0.497,0.761,0.726
					c0.288,0.211,0.57,0.436,0.854,0.67c0.271,0.253,0.594,0.441,0.909,0.651c0.316,0.21,0.632,0.434,0.951,0.669
					c0.665,0.42,1.366,0.803,2.061,1.347c-0.841,0.107-1.69,0.093-2.55,0.042c-0.417-0.073-0.838-0.157-1.26-0.255
					c-0.422-0.096-0.85-0.191-1.245-0.386c-1.651-0.602-3.152-1.775-4.252-3.254c-1.106-1.493-1.672-3.342-1.703-5.111
					C84.364,258.173,84.784,256.428,85.769,255.012z"/>
			</g>
			<g>
				<path fill="#717070" d="M100.999,217.602c-1.505,2.605-2.785,5.221-4.05,7.843c-1.229,2.638-2.385,5.293-3.502,7.971
					c-1.116,2.68-2.151,5.396-3.228,8.121c-0.534,1.364-1.032,2.746-1.596,4.117c-0.547,1.376-1.055,2.769-1.717,4.14
					c0.009-1.509,0.137-3.005,0.289-4.502c0.235-1.477,0.43-2.972,0.783-4.43c0.643-2.933,1.545-5.812,2.7-8.595
					c1.169-2.775,2.546-5.476,4.247-7.978C96.617,221.8,98.547,219.401,100.999,217.602z"/>
			</g>
		</g>
		<path fill="#303031" d="M89.777,276.12c0,0,3.474-10.154,6.68-8.283c0,0,7.215,4.008,7.482,8.283
			C103.939,276.12,95.388,281.464,89.777,276.12z"/>
	</g>
	<g>
		<path fill="#4A494A" d="M118.367,144.925c0,0-20.04-23.245-26.453-24.583c0,0-9.619-1.335-11.757,12.293
			c0,0-23.514,10.153-20.575,42.484c0,0,0.535,12.558,14.162,25.384c0,0,26.987,37.674,21.109,53.44c0,0-4.542,15.765-12.024,18.437
			c0,0-5.878-12.291-17.367-4.274c0,0-13.894,13.094,1.336,13.36c0,0-19.212,1.604-7.469-13.895c0,0,3.728-3.473,10.675,4.276
			c0,0,7.482,9.083,21.376,0c0,0,9.62-2.94,9.085-27.523c0,0,7.749-21.374-1.336-37.675c0,0-23.781-26.987-10.154-44.622
			c0,0,9.886-21.377,25.117-7.749L118.367,144.925z"/>
		<g>
			<g>
				<path fill="#2D2D2E" d="M79.624,133.97c0.513-1.995,1.228-3.947,2.142-5.816c0.911-1.869,2.019-3.675,3.496-5.246
					c0.748-0.773,1.594-1.484,2.575-2.036c0.975-0.548,2.104-0.938,3.279-0.978c2.381-0.089,4.541,1.026,6.222,2.378l0.021,0.017
					l0.033,0.031c4.445,4.193,8.844,8.433,13.156,12.765c4.3,4.343,8.567,8.722,12.63,13.313c-4.754-3.87-9.305-7.953-13.822-12.07
					c-4.506-4.129-8.924-8.35-13.297-12.618l0.054,0.048c-1.469-1.213-3.163-2.152-4.948-2.142
					c-1.778-0.003-3.519,0.951-4.943,2.273c-1.465,1.302-2.65,2.959-3.742,4.661C81.41,130.274,80.452,132.087,79.624,133.97z"/>
			</g>
			<g>
				<path fill="#2D2D2E" d="M90.578,129.428c2.321,1.367,4.572,2.778,6.822,4.178c2.259,1.383,4.494,2.787,6.781,4.082
					c1.13,0.67,2.278,1.308,3.439,1.91c1.15,0.627,2.328,1.192,3.512,1.739c2.386,1.042,4.817,2.014,7.502,2.252
					c-2.671,0.606-5.491,0.018-8.062-0.796c-2.6-0.836-5.045-2.041-7.39-3.374c-2.329-1.366-4.565-2.872-6.673-4.54
					C94.399,133.218,92.378,131.438,90.578,129.428z"/>
			</g>
			<g>
				<path fill="#2D2D2E" d="M88.975,130.763c-2.533,0.815-4.951,1.94-7.274,3.209c-2.321,1.276-4.537,2.738-6.591,4.394
					c-4.106,3.311-7.551,7.42-9.94,12.071c-1.205,2.319-2.137,4.779-2.758,7.315c-0.371,1.252-0.537,2.554-0.789,3.833
					c-0.122,1.301-0.348,2.59-0.358,3.9c-0.235,5.22,0.359,10.471,1.583,15.577l0.005,0.02l0.015,0.098
					c0.106,0.708,0.367,1.592,0.641,2.383c0.286,0.81,0.609,1.615,0.976,2.404c0.715,1.585,1.563,3.123,2.482,4.617
					c1.837,2.994,3.956,5.826,6.221,8.538c1.119,1.362,2.323,2.678,3.52,3.998c1.224,1.427,2.273,2.844,3.326,4.325
					c2.085,2.942,4.017,5.988,5.792,9.126c3.537,6.272,6.482,12.934,8.261,19.965c1.779,7.001,2.189,14.505,0.344,21.578
					l-0.012,0.044l-0.009,0.022c-1.214,2.994-2.713,5.803-4.53,8.446c-1.811,2.621-4.011,5.083-6.827,6.725
					c-1.401,0.811-2.97,1.377-4.593,1.521c-1.62,0.149-3.261-0.115-4.754-0.705c-2.983-1.23-5.397-3.415-7.441-5.795
					c2.162,2.276,4.685,4.293,7.595,5.38c1.461,0.513,3.021,0.697,4.532,0.499c1.513-0.195,2.955-0.777,4.245-1.592
					c2.584-1.655,4.62-4.077,6.328-6.652c1.696-2.59,3.113-5.413,4.199-8.285l-0.02,0.066c1.638-6.846,0.988-14.029-0.739-20.825
					c-1.78-6.818-4.71-13.322-8.231-19.451c-1.765-3.066-3.687-6.045-5.754-8.914c-1.034-1.416-2.101-2.883-3.192-4.174
					c-1.191-1.335-2.388-2.663-3.527-4.07c-2.291-2.786-4.44-5.703-6.316-8.814c-0.939-1.554-1.808-3.157-2.548-4.833
					c-0.379-0.833-0.717-1.69-1.018-2.566c-0.294-0.9-0.559-1.731-0.708-2.792l0.019,0.117c-1.211-5.243-1.823-10.674-1.416-16.079
					c0.044-1.353,0.306-2.69,0.466-4.032c0.291-1.323,0.497-2.665,0.911-3.958c0.706-2.614,1.732-5.142,3.034-7.512
					c1.291-2.375,2.843-4.604,4.62-6.631c1.788-2.018,3.795-3.828,5.943-5.432C79,134.645,83.838,132.17,88.975,130.763z"/>
			</g>
			<g>
				<path fill="#2D2D2E" d="M111.153,148.398c-2.49-1.667-5.209-2.961-8.013-3.942c-2.811-0.956-5.747-1.558-8.686-1.584
					c-2.935-0.075-5.863,0.436-8.566,1.504c-2.708,1.061-5.174,2.679-7.345,4.618l0.076-0.076c-1.261,1.715-2.237,3.897-2.906,6.059
					c-0.197,0.537-0.344,1.091-0.471,1.652l-0.409,1.672c-0.163,1.14-0.398,2.267-0.506,3.415c-0.068,1.152-0.21,2.298-0.219,3.452
					l0.014,3.468l0.292,3.464c0.032,0.579,0.11,1.153,0.217,1.725l0.282,1.719c0.292,2.306,0.964,4.547,1.469,6.818
					c0.251,1.137,0.67,2.232,0.996,3.351c0.354,1.111,0.681,2.231,1.058,3.335c0.857,2.174,1.661,4.369,2.561,6.527l2.906,6.395
					l-0.035-0.064c1.98,3.389,3.797,6.824,5.516,10.327c1.709,3.503,3.359,7.036,4.796,10.662c1.446,3.619,2.797,7.282,3.832,11.044
					c1.039,3.754,1.891,7.575,2.185,11.454c-0.591-3.843-1.617-7.584-2.837-11.252l-0.968-2.734l-1.064-2.699
					c-0.704-1.799-1.474-3.575-2.258-5.341c-1.573-3.532-3.293-6.998-5.081-10.425c-1.808-3.412-3.674-6.817-5.662-10.101
					l-0.023-0.038l-0.012-0.026l-3.052-6.442c-0.927-2.189-1.76-4.422-2.643-6.632c-0.391-1.125-0.732-2.269-1.1-3.403
					c-0.341-1.143-0.771-2.258-1.037-3.424c-0.541-2.328-1.189-4.631-1.489-7.014l-0.28-1.774c-0.106-0.589-0.183-1.183-0.214-1.784
					l-0.282-3.589l0.005-3.608c0.029-1.202,0.195-2.403,0.287-3.603c0.133-1.198,0.396-2.383,0.589-3.574l0.459-1.758
					c0.143-0.588,0.309-1.171,0.527-1.74c0.771-2.318,1.759-4.509,3.36-6.553l0.029-0.036l0.047-0.04
					c2.348-1.983,5.012-3.646,7.925-4.679c2.912-1.029,6.022-1.446,9.074-1.254c3.057,0.184,6.032,0.962,8.835,2.079
					C106.131,145.073,108.791,146.546,111.153,148.398z"/>
			</g>
			<g>
				<path fill="#2D2D2E" d="M109.283,151.07c-1.881-0.828-3.952-1.113-5.958-0.991c-2.015,0.125-3.961,0.747-5.712,1.696
					l-1.282,0.772c-0.407,0.288-0.791,0.611-1.191,0.909l-0.593,0.455l-0.54,0.521l-1.074,1.045
					c-0.67,0.743-1.292,1.534-1.928,2.305l-1.695,2.493l0.059-0.112c-1.249,3.38-2.074,6.995-2.598,10.585
					c-0.515,3.604-0.616,7.258-0.214,10.839c0.383,3.583,1.399,7.076,3.043,10.238c0.843,1.567,1.807,3.074,2.96,4.435
					c0.267,0.358,0.596,0.662,0.891,0.996c0.305,0.326,0.593,0.662,0.939,0.963l0.997,0.927c0.403,0.385,0.714,0.757,1.015,1.137
					c4.723,6.137,6.835,13.724,7.289,21.185c0.429,7.503-0.727,14.987-2.959,22.052c1.634-7.227,2.341-14.66,1.609-21.941
					c-0.372-3.63-1.072-7.233-2.31-10.645c-1.196-3.413-2.905-6.673-5.118-9.438c-0.274-0.345-0.567-0.68-0.835-0.932l-1.043-0.958
					c-0.689-0.643-1.344-1.366-1.972-2.086c-1.253-1.46-2.308-3.081-3.228-4.768c-1.779-3.413-2.815-7.173-3.2-10.953
					c-0.423-3.786-0.188-7.596,0.403-11.312c0.601-3.728,1.583-7.345,3.01-10.874l0.029-0.071l0.03-0.041l1.861-2.529
					c0.703-0.781,1.39-1.575,2.127-2.32l1.18-1.049l0.592-0.519l0.648-0.454c0.435-0.299,0.857-0.614,1.306-0.887l1.404-0.73
					c1.91-0.885,3.995-1.403,6.085-1.4C105.395,149.599,107.479,150.082,109.283,151.07z"/>
			</g>
			<g>
				<path fill="#2D2D2E" d="M99.93,243.789c0.722,3.416,0.867,6.949,0.595,10.458c-0.272,3.509-1.037,7.031-2.529,10.316
					c-0.771,1.624-1.688,3.204-2.866,4.599c-1.193,1.375-2.573,2.609-4.147,3.525c-3.137,1.893-6.848,2.441-10.293,2.096
					c3.443-0.489,6.765-1.462,9.444-3.406c2.679-1.917,4.698-4.616,6.045-7.65c1.412-3.012,2.229-6.319,2.801-9.669
					C99.531,250.696,99.827,247.268,99.93,243.789z"/>
			</g>
			<g>
				<path fill="#2D2D2E" d="M65.996,267.569c1.198,1.254,2.42,2.368,3.703,3.353c1.29,0.977,2.667,1.768,4.114,2.347
					c1.445,0.575,2.97,0.98,4.569,1.067c0.799,0.114,1.607,0.048,2.439,0.061c0.833-0.002,1.655-0.153,2.544-0.148
					c-0.749,0.416-1.534,0.832-2.366,1.113c-0.845,0.224-1.704,0.513-2.603,0.534c-1.784,0.209-3.648-0.087-5.33-0.774
					c-1.693-0.674-3.202-1.75-4.411-3.051C67.452,270.768,66.482,269.249,65.996,267.569z"/>
			</g>
			<g>
				<path fill="#2D2D2E" d="M82.295,273.18c-2.249-0.927-4.516-1.755-6.803-2.474c-2.293-0.693-4.603-1.302-6.931-1.624
					c-2.318-0.332-4.67-0.393-6.849,0.093c-2.176,0.495-4.083,1.675-5.353,3.473l0.071-0.122c-0.233,0.492-0.419,1.178-0.498,1.794
					c-0.053,0.631-0.049,1.272,0.121,1.872c0.261,1.225,1.091,2.299,2.196,3.093c0.252,0.23,0.547,0.408,0.856,0.573
					c0.305,0.167,0.599,0.36,0.917,0.512c0.665,0.242,1.297,0.596,1.994,0.79c0.696,0.188,1.379,0.457,2.095,0.61
					c0.715,0.15,1.43,0.328,2.153,0.496c-0.735-0.021-1.478-0.031-2.221-0.07c-0.745-0.024-1.478-0.181-2.222-0.282
					c-0.744-0.104-1.466-0.357-2.203-0.552c-0.361-0.125-0.71-0.297-1.067-0.446c-0.36-0.145-0.713-0.309-1.04-0.54
					c-1.356-0.781-2.575-2.085-3.078-3.723c-0.268-0.809-0.32-1.661-0.286-2.493c0.077-0.844,0.22-1.607,0.575-2.464l0.017-0.042
					l0.053-0.08c1.477-2.211,3.912-3.826,6.483-4.325c2.563-0.552,5.143-0.382,7.581,0.112c2.449,0.483,4.791,1.295,7.036,2.277
					C78.133,270.63,80.295,271.787,82.295,273.18z"/>
			</g>
			<g>
				<path fill="#2D2D2E" d="M67.867,282.266c-1.709,0.271-3.487,0.27-5.243-0.199c-0.871-0.248-1.747-0.642-2.49-1.308
					c-0.746-0.665-1.234-1.667-1.359-2.665c-0.247-2.035,0.526-3.825,1.335-5.408c0.836-1.601,1.897-3.024,2.978-4.408l0.072-0.092
					l0.091-0.067c1.607-1.18,3.299-1.989,5.131-2.622c1.832-0.569,3.808-0.875,5.758-0.595c0.482,0.103,0.976,0.124,1.439,0.299
					l1.383,0.492c0.845,0.496,1.707,0.941,2.39,1.623c0.76,0.588,1.289,1.386,1.87,2.11c0.531,0.763,0.911,1.621,1.342,2.419
					l-0.89-1.045c-0.303-0.336-0.537-0.727-0.89-1.012c-0.679-0.588-1.267-1.258-2.044-1.677c-0.687-0.544-1.509-0.832-2.278-1.177
					l-1.229-0.308c-0.402-0.119-0.838-0.09-1.251-0.145c-1.676-0.077-3.372,0.222-4.979,0.827c-1.602,0.566-3.198,1.417-4.535,2.383
					l0.163-0.158c-1.067,1.295-2.051,2.65-2.887,4.053c-0.828,1.393-1.488,2.922-1.447,4.355c0.026,0.713,0.286,1.36,0.748,1.922
					c0.475,0.555,1.161,0.976,1.9,1.307C64.44,281.831,66.153,282.117,67.867,282.266z"/>
			</g>
		</g>
		<path fill="#4A494A" d="M96.991,151.872c0,0-14.161,10.42,0,31.262c0,0,25.385,41.148,11.223,63.861
			c0,0-8.551,15.496-9.886,15.764c0,0,16.833-19.773,6.947-46.493l-11.757-30.995C93.518,185.273,81.226,169.775,96.991,151.872z"/>
		<g>
			<g>
				<path fill="#2D2D2E" d="M99.129,150.001c-3.399,3.55-6.012,7.911-7.039,12.64c-0.539,2.35-0.631,4.784-0.293,7.144
					c0.359,2.359,1.108,4.65,2.203,6.776l0.88,1.565l0.995,1.536c0.669,1.078,1.281,2.14,1.896,3.223
					c1.223,2.159,2.393,4.346,3.513,6.559c2.23,4.431,4.24,8.975,6.021,13.614c1.737,4.654,3.251,9.407,4.325,14.28
					c1.033,4.873,1.731,9.867,1.511,14.893c-0.138,4.999-1.358,10.083-3.783,14.448c-1.161,2.196-2.411,4.345-3.85,6.373
					c-0.721,1.011-1.492,1.994-2.375,2.876c-0.443,0.438-0.925,0.843-1.454,1.177c-0.526,0.328-1.126,0.59-1.749,0.577
					c0.622-0.039,1.179-0.343,1.664-0.702c0.487-0.366,0.922-0.797,1.319-1.26c0.805-0.917,1.506-1.924,2.154-2.963
					c1.293-2.08,2.399-4.278,3.409-6.508c0.523-1.111,0.953-2.251,1.401-3.369c0.206-0.568,0.35-1.156,0.528-1.731
					c0.189-0.572,0.313-1.164,0.425-1.758c0.527-2.355,0.727-4.779,0.75-7.198c0.03-4.848-0.68-9.694-1.798-14.438
					c-1.104-4.75-2.605-9.417-4.347-13.99c-1.72-4.584-3.698-9.075-5.845-13.484c-1.066-2.208-2.182-4.394-3.349-6.549
					c-0.58-1.074-1.188-2.156-1.789-3.192l-0.966-1.601l-0.88-1.689c-1.086-2.297-1.838-4.772-2.104-7.307
					c-0.248-2.533-0.042-5.109,0.642-7.537c0.67-2.435,1.777-4.714,3.127-6.803C95.63,153.519,97.248,151.605,99.129,150.001z"/>
			</g>
			<g>
				<path fill="#2D2D2E" d="M96.19,152.14c-2.271,2.922-3.812,6.327-4.737,9.849c-0.931,3.528-1.227,7.181-1.028,10.796l0.278,2.703
					c0.07,0.903,0.334,1.781,0.491,2.672c0.292,1.79,0.896,3.509,1.404,5.248c0.221,0.88,0.637,1.699,0.959,2.546l1.027,2.522
					l2.459,4.873l-0.04-0.065c2.665,4.151,4.827,8.489,6.705,12.99c1.893,4.485,3.346,9.156,4.396,13.913
					c0.989,4.77,1.518,9.656,1.297,14.526c-0.235,4.861-1.201,9.696-3.057,14.154c0.669-2.318,1.228-4.655,1.558-7.027
					c0.307-2.374,0.46-4.761,0.427-7.145c-0.054-4.769-0.736-9.509-1.867-14.133c-1.117-4.63-2.691-9.144-4.547-13.534
					c-0.932-2.194-1.948-4.353-3.04-6.471c-1.086-2.111-2.243-4.227-3.497-6.195l-0.033-0.053l-0.007-0.013
					c-0.83-1.684-1.688-3.353-2.49-5.049l-1.007-2.635c-0.315-0.886-0.721-1.737-0.934-2.659c-0.483-1.821-1.091-3.608-1.318-5.489
					c-0.13-0.934-0.366-1.85-0.407-2.795l-0.186-2.821c-0.053-3.766,0.431-7.553,1.638-11.106
					C91.847,158.21,93.614,154.818,96.19,152.14z"/>
			</g>
		</g>
	</g>
	<g>
		<path fill="#4A494A" d="M195.588,146.528c0,0-9.352-5.076-10.421-9.084c0,0,2.914-1.574,6.426,1.383
			c0,0-15.156-7.023-11.459-32.899c0,0,1.293-2.033,5.729,0c0,0-2.772-3.696-7.578-2.958c0,0-6.356-6.837,8.651-26.8l0.22-4.066
			h2.033v-3.696c0,0,10.72-12.938,18.113-10.72c0,0,9.057-10.535,29.019-1.109c0,0,9.796,4.804,5.913,14.416
			c0,0-17.003,10.905-8.317,21.81c0,0-16.08-2.219-17.189,3.696c0,0,1.848,13.862,11.83,18.668c0,0,12.938,4.436,18.483-0.37
			c0,0-4.251,7.763-17.374,4.252c0,0,25.506,10.72,32.9,21.624c0,0,11.274,12.568,5.914,21.441c0,0-3.88-15.526-13.493-18.668
			l-15.525-4.805c0,0,21.994,7.209,25.506,31.791c0,0,12.384,27.908-4.805,43.065c0,0,6.838-10.906-2.772-30.682
			c0,0,1.663,20.885-4.067,28.833c0,0,4.067-17.374-18.483-19.222c0,0,14.232,14.232,3.696,27.169c0,0-19.962,21.441-9.057,25.691
			c0,0-9.241,3.698-8.501-7.392c0,0-0.37-7.209,6.285-16.635c0,0,8.501-23.104-4.807-31.236L195.588,146.528z"/>
		<g>
			<g>
				<path fill="#2D2D2E" d="M185.123,137.163c1.422,0.743,2.724,1.597,3.993,2.485c1.27,0.887,2.51,1.798,3.717,2.743
					c1.212,0.94,2.397,1.901,3.583,2.865c1.199,0.961,2.351,1.923,3.678,2.813c-1.62-0.105-3.149-0.769-4.535-1.509
					c-1.396-0.755-2.721-1.621-3.953-2.591c-1.237-0.964-2.402-2.015-3.496-3.137C187.018,139.709,185.987,138.517,185.123,137.163z
					"/>
			</g>
			<g>
				<path fill="#2D2D2E" d="M186.048,137.533c0.761-0.27,1.48-0.334,2.19-0.352c0.707-0.005,1.398,0.067,2.076,0.204
					c0.678,0.137,1.342,0.343,1.99,0.625c0.646,0.294,1.282,0.637,1.876,1.186c-0.762,0.272-1.481,0.338-2.191,0.355
					c-0.707,0.005-1.398-0.066-2.076-0.207c-0.677-0.14-1.342-0.345-1.99-0.627C187.278,138.421,186.642,138.08,186.048,137.533z"/>
			</g>
			<g>
				<path fill="#2D2D2E" d="M180.503,105.742c-0.074,3.126-0.019,6.209,0.201,9.262c0.248,3.047,0.635,6.073,1.427,8.976
					c0.734,2.916,1.903,5.696,3.552,8.178c0.852,1.22,1.823,2.365,2.933,3.395c1.114,1.03,2.383,1.888,3.716,2.718
					c-1.507-0.421-2.968-1.076-4.318-1.943c-1.322-0.901-2.538-1.986-3.576-3.23c-2.066-2.504-3.427-5.522-4.24-8.61
					c-0.803-3.102-1.116-6.289-1.048-9.444C179.22,111.895,179.609,108.75,180.503,105.742z"/>
			</g>
			<g>
				<path fill="#2D2D2E" d="M180.503,119.789c2.913,1.772,5.87,2.949,8.965,3.787c1.556,0.367,3.121,0.737,4.738,0.945
					c0.402,0.082,0.807,0.119,1.216,0.163l1.231,0.158c0.826,0.104,1.659,0.145,2.518,0.306c-0.809,0.28-1.641,0.504-2.484,0.675
					c-0.847,0.1-1.705,0.277-2.568,0.256c-1.729,0.077-3.47-0.155-5.162-0.57c-1.685-0.455-3.306-1.161-4.772-2.104
					C182.73,122.463,181.386,121.285,180.503,119.789z"/>
			</g>
			<g>
				<path fill="#2D2D2E" d="M181.057,117.017c1.524,0.615,3.024,1.016,4.53,1.337c1.507,0.311,3.022,0.478,4.544,0.584
					c1.526,0.07,3.062,0.085,4.621,0.011c0.781-0.019,1.561-0.109,2.36-0.132c0.795-0.053,1.59-0.146,2.428-0.138
					c-0.709,0.417-1.453,0.769-2.211,1.095c-0.776,0.254-1.552,0.561-2.362,0.72c-1.61,0.375-3.284,0.529-4.955,0.44
					c-1.669-0.111-3.332-0.462-4.885-1.095C183.588,119.206,182.105,118.316,181.057,117.017z"/>
			</g>
			<g>
				<path fill="#2D2D2E" d="M182.166,104.819c0.628-0.182,1.172-0.172,1.698-0.118c0.52,0.066,1.01,0.203,1.472,0.402
					c0.463,0.199,0.898,0.462,1.301,0.796c0.399,0.346,0.778,0.738,1.074,1.322c-0.629,0.184-1.174,0.176-1.699,0.121
					c-0.52-0.066-1.01-0.203-1.471-0.405c-0.462-0.201-0.897-0.464-1.3-0.799C182.842,105.792,182.463,105.401,182.166,104.819z"/>
			</g>
			<g>
				<path fill="#2D2D2E" d="M181.797,105.373c0.51,0.736,1.234,1.191,1.965,1.566c0.722,0.396,1.53,0.628,2.311,0.878
					c1.599,0.447,3.272,0.653,4.947,0.871c1.688,0.164,3.391,0.32,5.118,0.432c1.728,0.138,3.468,0.216,5.25,0.505
					c-1.708,0.541-3.457,0.9-5.23,1.056c-1.771,0.179-3.569,0.181-5.362-0.006c-1.79-0.227-3.591-0.614-5.274-1.404
					c-0.833-0.412-1.644-0.886-2.33-1.539C182.533,107.086,181.898,106.296,181.797,105.373z"/>
			</g>
			<g>
				<path fill="#2D2D2E" d="M178.1,102.416c1.505-0.635,3.26-0.549,4.854-0.119c1.611,0.44,3.093,1.287,4.358,2.341
					c1.3,1.032,2.293,2.354,3.175,3.699c0.407,0.696,0.766,1.419,1.105,2.14c0.275,0.758,0.551,1.508,0.74,2.287
					c-0.582-0.573-1.078-1.176-1.575-1.77c-0.52-0.576-1.034-1.145-1.52-1.723c-1.052-1.088-2.061-2.182-3.204-3.096
					c-1.124-0.931-2.309-1.778-3.622-2.422C181.093,103.126,179.689,102.614,178.1,102.416z"/>
			</g>
			<g>
				<path fill="#2D2D2E" d="M176.252,101.307c-0.202-2.456,0.017-4.92,0.431-7.344c0.42-2.427,1.08-4.822,2.015-7.127
					c0.977-2.283,2.164-4.507,3.75-6.455c1.601-1.926,3.57-3.578,5.818-4.581c-1.788,1.704-3.271,3.524-4.553,5.495
					c-0.29,0.515-0.584,1.023-0.892,1.52c-0.315,0.493-0.538,1.046-0.811,1.564c-0.127,0.265-0.271,0.521-0.407,0.78l-0.358,0.808
					c-0.23,0.543-0.495,1.068-0.696,1.625l-0.661,1.646l-0.589,1.679c-0.402,1.118-0.749,2.258-1.102,3.402
					C177.512,96.612,176.874,98.933,176.252,101.307z"/>
			</g>
			<g>
				<path fill="#2D2D2E" d="M181.057,84.487c1.821,3.173,3.666,6.125,5.992,8.632c1.154,1.258,2.454,2.339,3.868,3.293
					c1.419,0.981,3.025,1.599,4.742,2.307c-1.817,0.122-3.758-0.115-5.479-0.932c-1.721-0.786-3.323-1.903-4.594-3.305
					c-1.281-1.392-2.309-2.985-3.084-4.672C181.737,88.122,181.179,86.334,181.057,84.487z"/>
			</g>
			<g>
				<path fill="#2D2D2E" d="M181.982,83.378c1.293,1.297,2.6,2.463,3.97,3.531c1.366,1.068,2.802,2.009,4.306,2.81
					c1.503,0.798,3.055,1.525,4.705,2.044c1.636,0.591,3.347,0.933,5.132,1.409c-1.789,0.357-3.673,0.446-5.504,0.106
					c-1.846-0.267-3.64-0.914-5.287-1.803c-1.658-0.879-3.148-2.057-4.407-3.425C183.639,86.691,182.577,85.125,181.982,83.378z"/>
			</g>
			<g>
				<path fill="#2D2D2E" d="M187.157,71.549c1.249,3.406,2.57,6.599,4.516,9.339c0.979,1.359,2.132,2.547,3.459,3.566
					c1.324,1.061,2.907,1.694,4.593,2.436c-1.798,0.086-3.744-0.173-5.414-1.108c-1.675-0.888-3.166-2.18-4.262-3.727
					c-1.093-1.548-1.867-3.278-2.36-5.056C187.207,75.219,186.958,73.376,187.157,71.549z"/>
			</g>
			<g>
				<path fill="#2D2D2E" d="M189.19,68.592c1.124,3.86,2.186,7.611,3.978,10.939c0.894,1.651,1.961,3.183,3.345,4.402
					c0.698,0.597,1.462,1.132,2.309,1.565c0.848,0.437,1.774,0.731,2.751,1.023c-1.002,0.152-2.045,0.114-3.077-0.096
					c-1.018-0.247-2.017-0.659-2.916-1.24c-1.803-1.165-3.196-2.869-4.173-4.706c-0.989-1.842-1.616-3.826-1.985-5.828
					C189.059,72.649,188.924,70.607,189.19,68.592z"/>
			</g>
			<g>
				<path fill="#2D2D2E" d="M188.636,69.146c1.027-1.795,2.326-3.399,3.743-4.887c1.426-1.48,2.98-2.856,4.708-4.022
					c1.715-1.173,3.617-2.147,5.681-2.7c2.033-0.542,4.397-0.575,6.199,0.519c-2.058-0.27-3.932,0.231-5.702,0.961
					c-1.767,0.759-3.431,1.776-5.055,2.875C194.946,64.092,191.907,66.663,188.636,69.146z"/>
			</g>
			<g>
				<path fill="#2D2D2E" d="M208.412,56.393c1.441-1.334,3.204-2.291,5.028-3.05c0.911-0.399,1.869-0.665,2.826-0.95
					c0.975-0.199,1.952-0.432,2.951-0.499c3.983-0.436,8.073,0.189,11.817,1.592c1.855,0.734,3.72,1.505,5.408,2.53l1.296,0.726
					c0.43,0.234,0.912,0.546,1.317,0.851c0.84,0.622,1.619,1.322,2.317,2.117c1.359,1.595,2.4,3.657,2.484,5.873
					c0.105,2.216-0.685,4.313-1.769,6.069l-0.066,0.106l-0.081,0.077c-1.438,1.358-2.831,2.822-4.175,4.297
					c-1.339,1.484-2.607,3.034-3.722,4.667c-0.548,0.82-1.057,1.667-1.44,2.553c-0.387,0.873-0.662,1.827-0.464,2.686
					c0.157,0.884,1.017,1.467,1.948,1.741c0.939,0.3,1.961,0.354,2.972,0.404c-1.006,0.074-2.038,0.203-3.068-0.029
					c-0.513-0.105-1.023-0.28-1.494-0.58c-0.448-0.319-0.86-0.777-1.024-1.335c-0.37-1.112-0.128-2.247,0.192-3.244
					c0.349-1.005,0.824-1.939,1.336-2.842c1.028-1.808,2.271-3.454,3.558-5.051c1.29-1.603,2.663-3.104,4.12-4.58l-0.147,0.183
					c0.893-1.587,1.467-3.312,1.381-5.019c-0.078-1.711-0.911-3.317-2.053-4.675c-0.582-0.677-1.253-1.295-1.974-1.84
					c-0.373-0.283-0.707-0.509-1.131-0.746l-1.248-0.716c-1.648-1.004-3.366-1.804-5.11-2.555c-0.894-0.31-1.778-0.662-2.683-0.941
					c-0.917-0.221-1.826-0.511-2.755-0.688c-1.862-0.316-3.757-0.549-5.656-0.448C215.513,53.183,211.68,54.252,208.412,56.393z"/>
			</g>
			<g>
				<path fill="#2D2D2E" d="M220.057,61.383c2.001-0.729,4.178-0.926,6.335-0.758c2.156,0.179,4.334,0.802,6.248,1.958
					c0.981,0.543,1.813,1.31,2.625,2.071c0.691,0.88,1.454,1.7,1.899,2.723c0.587,0.939,0.847,2.015,1.169,3.037
					c0.255,1.043,0.319,2.127,0.391,3.169c-0.508-0.953-0.82-1.934-1.313-2.829c-0.515-0.882-0.936-1.79-1.573-2.552
					c-0.543-0.827-1.242-1.504-1.907-2.202c-0.758-0.598-1.469-1.244-2.324-1.704c-1.649-0.991-3.499-1.688-5.451-2.134
					C224.202,61.729,222.168,61.475,220.057,61.383z"/>
			</g>
			<g>
				<path fill="#2D2D2E" d="M225.786,63.047c1.218-0.076,2.389,0.108,3.532,0.386c1.14,0.292,2.248,0.711,3.307,1.254
					c1.052,0.559,2.06,1.258,2.915,2.161c0.205,0.24,0.409,0.476,0.594,0.727l0.476,0.828c0.113,0.306,0.206,0.62,0.281,0.918
					c0.036,0.321,0.009,0.647-0.015,0.934c-0.603-1.056-1.449-1.635-2.356-2.211c-0.905-0.562-1.856-1.069-2.822-1.586
					c-0.977-0.503-1.961-1.018-2.951-1.566C227.759,64.332,226.764,63.769,225.786,63.047z"/>
			</g>
			<g>
				<path fill="#2D2D2E" d="M220.426,65.449c1.719,0.107,3.381,0.541,4.982,1.14c1.596,0.612,3.152,1.387,4.56,2.434
					c1.408,1.028,2.693,2.347,3.523,3.979c0.855,1.613,0.992,3.647,0.242,5.201c-0.097-1.728-0.657-3.178-1.579-4.394
					c-0.918-1.217-2.103-2.236-3.374-3.177C226.225,68.738,223.338,67.222,220.426,65.449z"/>
			</g>
			<g>
				<path fill="#2D2D2E" d="M219.317,65.08c1.65,0.323,3.201,0.959,4.671,1.745c1.464,0.798,2.867,1.749,4.094,2.941
					c1.23,1.174,2.303,2.612,2.909,4.292c0.627,1.665,0.526,3.657-0.4,5.069c0.106-1.687-0.282-3.147-1.026-4.433
					c-0.747-1.285-1.764-2.417-2.872-3.489C224.468,69.046,221.884,67.198,219.317,65.08z"/>
			</g>
			<g>
				<path fill="#2D2D2E" d="M226.34,82.638c1.923,0.991,3.511,2.094,5.183,2.799c0.828,0.349,1.642,0.62,2.507,0.711
					c0.868,0.073,1.764-0.089,2.846-0.368c-0.551,0.935-1.54,1.673-2.719,1.935c-1.179,0.232-2.392,0.004-3.428-0.444
					c-1.047-0.449-1.941-1.12-2.682-1.904C227.314,84.575,226.687,83.688,226.34,82.638z"/>
			</g>
		</g>
		<g>
			<g>
				<path fill="#2D2D2E" d="M226.895,68.407c1.203-0.018,2.357,0.364,3.42,0.923c1.056,0.576,2.014,1.402,2.728,2.436
					c0.733,1.02,1.154,2.286,1.194,3.525c0.086,1.244-0.285,2.451-0.873,3.467c-0.233-1.186-0.318-2.242-0.678-3.21
					c-0.299-0.969-0.718-1.847-1.291-2.65C230.28,71.264,228.698,69.917,226.895,68.407z"/>
			</g>
			<g>
				<path fill="#2D2D2E" d="M213.957,88.369c0.756,4.058,1.902,7.997,3.496,11.705c1.61,3.688,3.734,7.157,6.601,9.855
					c1.413,1.364,3.009,2.528,4.75,3.435c1.742,0.913,3.627,1.518,5.562,1.981c3.91,0.782,8.021,0.701,12.121,0.192
					c-3.913,1.319-8.159,1.885-12.39,1.346c-2.108-0.304-4.18-0.926-6.14-1.825c-1.941-0.942-3.714-2.214-5.282-3.682
					c-3.112-2.987-5.295-6.773-6.67-10.735C214.625,96.677,213.889,92.511,213.957,88.369z"/>
			</g>
			<g>
				<path fill="#2D2D2E" d="M217.654,113.69c2.44,0.969,4.854,1.872,7.287,2.669c2.435,0.779,4.886,1.46,7.366,1.85
					c1.235,0.23,2.48,0.337,3.72,0.376c1.242,0.066,2.48-0.017,3.702-0.195c1.216-0.2,2.431-0.491,3.59-0.978
					c1.165-0.476,2.262-1.129,3.352-1.874c-0.778,1.062-1.771,1.979-2.892,2.742c-1.137,0.737-2.406,1.278-3.723,1.636
					c-2.645,0.741-5.426,0.67-8.071,0.265c-2.648-0.458-5.204-1.266-7.607-2.374C221.976,116.709,219.68,115.376,217.654,113.69z"/>
			</g>
			<g>
				<path fill="#2D2D2E" d="M229.667,118.31c4.841,1.663,9.485,3.88,13.953,6.401c4.475,2.518,8.733,5.446,12.68,8.782
					c1.946,1.7,3.821,3.49,5.557,5.42c1.694,1.966,3.288,4.036,4.599,6.291c2.674,4.448,4.167,9.775,3.503,14.877
					c-0.192-5.132-2.037-9.924-4.828-14.051c-2.784-4.142-6.31-7.76-10.132-11.019c-1.89-1.658-3.9-3.183-5.934-4.676
					c-2.024-1.509-4.133-2.906-6.252-4.294C238.553,123.302,234.17,120.728,229.667,118.31z"/>
			</g>
			<g>
				<path fill="#2D2D2E" d="M221.905,124.964c3.004,2.251,6.686,3.035,10.262,3.078c3.808,0.081,7.53,0.748,11.191,1.7
					c3.642,1.002,7.215,2.373,10.479,4.324c3.258,1.927,6.245,4.429,8.36,7.533c-2.744-2.548-5.831-4.551-9.103-6.161
					c-3.278-1.597-6.727-2.831-10.259-3.767c-3.52-0.958-7.141-1.69-10.758-2.077c-1.902-0.16-3.817-0.593-5.579-1.344
					C224.755,127.476,223.085,126.436,221.905,124.964z"/>
			</g>
			<g>
				<path fill="#2D2D2E" d="M220.981,127.183c0.884,0.703,1.801,1.324,2.745,1.877c0.942,0.556,1.925,1.014,2.916,1.407
					c0.992,0.394,2.014,0.674,3.04,0.861c1.027,0.202,2.069,0.228,3.102,0.233l-0.105,0.008c1.378-0.208,2.741-0.322,4.117-0.423
					c1.374-0.105,2.755-0.12,4.137-0.121c1.383,0.029,2.771,0.112,4.15,0.307c1.365,0.213,2.789,0.494,3.99,1.214
					c-1.357-0.256-2.696-0.225-4.045-0.164c-1.346,0.07-2.69,0.168-4.034,0.297l-4.033,0.396l-4.023,0.439l-0.08,0.009l-0.025,0
					c-1.193-0.02-2.396-0.096-3.54-0.432c-0.581-0.124-1.134-0.345-1.69-0.535c-0.537-0.244-1.078-0.472-1.585-0.766
					c-1.027-0.555-1.971-1.242-2.825-2.01C222.35,129.004,221.579,128.147,220.981,127.183z"/>
			</g>
			<g>
				<path fill="#2D2D2E" d="M238.539,138.272c3.166,0.094,6.304,0.669,9.365,1.519c3.067,0.842,6.047,2.056,8.857,3.631
					c2.764,1.632,5.413,3.642,7.338,6.308c0.963,1.317,1.768,2.765,2.263,4.316c0.483,1.551,0.717,3.161,0.641,4.741
					c-0.367-1.543-0.851-3.011-1.548-4.366c-0.669-1.367-1.587-2.582-2.57-3.712c-1.011-1.11-2.102-2.154-3.325-3.047
					c-1.2-0.917-2.464-1.762-3.794-2.507c-2.642-1.525-5.464-2.77-8.35-3.888C244.52,140.163,241.563,139.181,238.539,138.272z"/>
			</g>
			<g>
				<path fill="#2D2D2E" d="M242.235,139.752c2.382,0.625,4.623,1.703,6.73,2.983c2.114,1.281,4.057,2.847,5.824,4.601
					c1.756,1.767,3.241,3.819,4.402,6.025c1.184,2.201,1.844,4.662,2.081,7.091c-1.05-2.232-2.062-4.36-3.424-6.296
					c-0.297-0.506-0.703-0.945-1.035-1.427c-0.35-0.471-0.685-0.95-1.091-1.379l-1.136-1.344l-1.224-1.269
					c-1.643-1.683-3.429-3.234-5.287-4.725C246.203,142.537,244.265,141.127,242.235,139.752z"/>
			</g>
			<g>
				<path fill="#2D2D2E" d="M234.473,140.49c6.549,3.481,12.621,7.903,18.043,13.038c5.399,5.143,10.18,11.093,13.437,17.933
					c1.584,3.43,2.777,7.06,3.408,10.802c0.116,0.942,0.312,1.874,0.359,2.822l0.143,2.842c-0.063,1.895-0.108,3.793-0.468,5.655
					l-0.214,1.401c-0.087,0.464-0.224,0.917-0.333,1.376c-0.246,0.91-0.432,1.837-0.734,2.728c-0.658,1.764-1.244,3.55-2.127,5.208
					c-1.601,3.388-3.733,6.47-6.006,9.388l1.42-2.389c0.471-0.794,0.996-1.554,1.38-2.396l1.241-2.465
					c0.219-0.404,0.405-0.823,0.562-1.256l0.507-1.279c0.758-1.671,1.23-3.441,1.765-5.179c0.236-0.878,0.382-1.778,0.581-2.663
					c0.087-0.445,0.201-0.885,0.265-1.334l0.147-1.352c0.265-1.795,0.234-3.608,0.262-5.41l-0.206-2.699
					c-0.066-0.899-0.279-1.782-0.41-2.673c-0.655-3.546-1.803-6.999-3.35-10.274c-1.504-3.3-3.474-6.383-5.62-9.325
					c-2.143-2.953-4.56-5.71-7.101-8.354c-2.56-2.627-5.27-5.12-8.105-7.474C240.507,144.773,237.545,142.562,234.473,140.49z"/>
			</g>
			<g>
				<path fill="#2D2D2E" d="M231.886,150.285c4.648,3.47,8.929,7.439,12.862,11.728c1.982,2.133,3.835,4.385,5.628,6.687
					c1.768,2.322,3.411,4.743,4.952,7.23c3.001,5.011,5.554,10.389,6.868,16.143c0.659,2.864,1.085,5.8,1.017,8.741
					c-0.091,2.933-0.487,5.854-1.385,8.615c0.994-5.725,0.463-11.515-1.142-16.962c-0.373-1.371-0.879-2.703-1.341-4.045
					c-0.536-1.319-1.055-2.642-1.681-3.922c-1.199-2.581-2.53-5.108-4.044-7.532c-2.95-4.894-6.388-9.501-10.044-13.933
					c-1.837-2.21-3.726-4.384-5.68-6.504C235.972,154.379,233.945,152.324,231.886,150.285z"/>
			</g>
			<g>
				<path fill="#2D2D2E" d="M235.397,148.068c1.118,0.817,2.078,1.751,2.982,2.726c0.903,0.976,1.751,1.992,2.535,3.056
					c0.79,1.06,1.511,2.17,2.18,3.319c0.668,1.15,1.278,2.342,1.729,3.652c-1.12-0.815-2.081-1.749-2.984-2.724
					c-0.902-0.977-1.752-1.992-2.533-3.058c-0.787-1.062-1.51-2.171-2.178-3.32C236.461,150.568,235.85,149.377,235.397,148.068z"/>
			</g>
			<g>
				<path fill="#2D2D2E" d="M234.842,169.693c3.659,2.135,6.942,4.897,9.893,7.969c2.962,3.07,5.511,6.564,7.531,10.367
					c1.963,3.823,3.382,7.993,3.775,12.299c0.466,4.291-0.138,8.657-1.608,12.614c0.661-4.175,0.785-8.355,0.061-12.407
					c-0.367-2.019-0.831-4.021-1.549-5.944c-0.681-1.931-1.473-3.829-2.452-5.638c-1.895-3.649-4.27-7.058-6.919-10.257
					C240.911,175.507,238.004,172.492,234.842,169.693z"/>
			</g>
			<g>
				<path fill="#2D2D2E" d="M235.952,191.133c2.445,0.015,4.874,0.586,7.17,1.504c2.304,0.911,4.468,2.27,6.283,4.05
					c1.803,1.784,3.186,4.046,3.847,6.492c0.683,2.439,0.657,5.003,0.073,7.361c-0.248-2.423-0.671-4.745-1.55-6.858
					c-0.434-1.056-0.975-2.055-1.614-2.983c-0.618-0.942-1.349-1.809-2.165-2.594c-1.592-1.613-3.505-2.926-5.541-4.063
					C240.407,192.918,238.236,191.961,235.952,191.133z"/>
			</g>
			<g>
				<path fill="#2D2D2E" d="M235.212,192.242c1.93,1.516,3.485,3.487,4.731,5.629c1.251,2.148,2.107,4.542,2.548,7.021
					c0.24,1.24,0.254,2.507,0.294,3.765c-0.148,1.254-0.149,2.523-0.537,3.729c-0.508,2.461-1.736,4.693-3.155,6.657
					c0.685-2.359,1.428-4.596,1.619-6.93c0.188-1.147,0.143-2.31,0.179-3.457c-0.097-1.149-0.117-2.299-0.371-3.428
					c-0.366-2.272-1.065-4.496-1.968-6.662C237.625,196.408,236.517,194.304,235.212,192.242z"/>
			</g>
			<g>
				<path fill="#2D2D2E" d="M234.288,225.326c-1.301,1.868-2.588,3.686-3.79,5.535c-1.185,1.853-2.309,3.733-3.08,5.695
					c-0.789,1.935-1.181,4.019-0.427,5.783c0.764,1.789,2.696,3.042,4.71,4.057c-1.126-0.135-2.274-0.367-3.343-0.902
					c-1.058-0.524-2.088-1.309-2.749-2.429c-0.694-1.102-0.91-2.448-0.867-3.691c0.066-1.255,0.389-2.444,0.817-3.552
					c0.912-2.202,2.198-4.152,3.692-5.889C230.738,228.192,232.399,226.612,234.288,225.326z"/>
			</g>
			<g>
				<path fill="#2D2D2E" d="M227.079,233.828c0.775,1.641,1.374,3.006,2.287,3.846c0.453,0.41,0.957,0.776,1.647,1
					c0.162,0.082,0.338,0.138,0.524,0.183l0.567,0.175c0.395,0.105,0.806,0.171,1.259,0.341c-0.371,0.267-0.782,0.469-1.213,0.64
					c-0.444,0.084-0.902,0.263-1.389,0.213c-0.966,0.042-2.022-0.386-2.771-1.102c-0.761-0.72-1.183-1.683-1.317-2.606
					C226.556,235.588,226.642,234.657,227.079,233.828z"/>
			</g>
			<g>
				<path fill="#2D2D2E" d="M229.482,195.938c-0.016,3.334-0.184,6.64-0.387,9.941c-0.189,3.302-0.455,6.591-0.703,9.88
					l-0.783,9.853c-0.209,3.288-0.487,6.554-0.345,9.879c-0.969-3.211-1.135-6.606-1.215-9.923c-0.052-3.332,0.113-6.655,0.35-9.967
					c0.289-3.307,0.642-6.607,1.149-9.887C228.045,202.435,228.646,199.167,229.482,195.938z"/>
			</g>
			<g>
				<path fill="#2D2D2E" d="M225.417,223.292c-0.696,2.235-1.366,4.425-1.946,6.622c-0.551,2.2-1.052,4.398-1.244,6.6
					c-0.225,2.191-0.169,4.399,0.468,6.441c0.329,1.012,0.775,2.007,1.441,2.882c0.648,0.892,1.478,1.661,2.39,2.407
					c-1.119-0.353-2.18-0.945-3.113-1.742c-0.921-0.81-1.655-1.849-2.171-2.978c-0.539-1.125-0.821-2.349-0.989-3.562
					c-0.132-1.22-0.112-2.439-0.016-3.64c0.252-2.399,0.876-4.71,1.758-6.896C222.879,227.244,223.982,225.154,225.417,223.292z"/>
			</g>
		</g>
	</g>
	<g>
		<g>
			<path fill="#EEEEEE" d="M229.48,172.233c0,0,1.751,7.501-0.5,10.751c0,0,13.25,4.249,25.376-7.75c0,0,7.251-1.039,7.626,8.48
				c0,0-5.876,22.271-6.375,29.272c0,0-9.126,9.127-12.375,9.876l-1.126-7c0,0,5.5,0.625,6.751-4.25c0,0-0.25-1.75,1.875-2.875
				c0,0,6.001-8.25,5.875-23.752c0,0-1.154-1.72-1.54-2.073c-0.396-0.366-1.585-0.802-1.585-0.802s-20.877,23.752-41.003,21.752
				c0,0-10.125-5.251-11.875-13.251L229.48,172.233z"/>
			<g>
				<g>
					<path fill="#717070" d="M200.603,190.609c0.834,1.4,1.751,2.518,2.67,3.626c0.927,1.097,1.916,2.117,2.921,3.136
						c0.991,1.034,2.065,2.01,3.107,3.077c0.537,0.516,1.078,1.041,1.597,1.619c0.536,0.557,1.084,1.111,1.579,1.792
						c-0.82-0.099-1.587-0.325-2.366-0.547c-0.748-0.276-1.484-0.594-2.197-0.956c-1.393-0.778-2.73-1.702-3.856-2.879
						c-1.137-1.156-2.124-2.498-2.791-4.015C200.634,193.955,200.208,192.246,200.603,190.609z"/>
				</g>
				<g>
					<path fill="#717070" d="M212.479,203.861c2.017,0.051,3.97-0.225,5.873-0.696c1.904-0.437,3.756-1.046,5.566-1.747
						c3.608-1.434,7.09-3.195,10.382-5.302c0.84-0.496,1.68-0.994,2.475-1.57l2.447-1.632c1.62-1.112,3.167-2.332,4.792-3.463
						c1.532-1.247,3.139-2.419,4.708-3.649c1.551-1.252,3.101-2.515,4.759-3.694c-1.177,1.64-2.462,3.195-3.746,4.763
						c-1.35,1.499-2.773,2.939-4.211,4.368c-0.732,0.7-1.507,1.356-2.281,2.012c-0.781,0.648-1.528,1.34-2.341,1.953
						c-1.653,1.189-3.254,2.456-5.038,3.47c-0.889,0.507-1.743,1.068-2.661,1.529c-0.919,0.456-1.828,0.933-2.756,1.369
						c-1.902,0.783-3.806,1.569-5.813,2.065c-0.49,0.154-0.995,0.264-1.502,0.362c-0.505,0.105-1.009,0.212-1.516,0.3
						c-1.023,0.138-2.046,0.273-3.074,0.318C216.498,204.698,214.391,204.569,212.479,203.861z"/>
				</g>
				<g>
					<path fill="#717070" d="M253.275,182.07c0.67-0.481,1.408-0.529,2.081-0.385c0.674,0.156,1.299,0.563,1.739,1.133
						c0.891,1.14,0.972,2.849-0.235,3.896c-0.645-0.526-1.008-0.914-1.356-1.225c-0.313-0.323-0.574-0.552-0.774-0.827
						c-0.206-0.271-0.387-0.579-0.616-0.981C253.884,183.272,253.636,182.795,253.275,182.07z"/>
				</g>
				<g>
					<path fill="#717070" d="M256.609,185.609c0.738,1.986,0.932,4.093,0.916,6.167c-0.039,2.077-0.31,4.155-0.845,6.163
						c-0.537,2.006-1.256,3.969-2.255,5.792c-0.965,1.835-2.194,3.538-3.693,5.005c0.408-2.077,1.005-3.97,1.505-5.887
						c0.553-1.893,1.03-3.785,1.54-5.664c0.506-1.882,0.951-3.777,1.414-5.692L256.609,185.609z"/>
				</g>
				<g>
					<path fill="#717070" d="M248.607,211.861c0.393,0.854,0.306,1.757-0.014,2.551c-0.329,0.793-0.934,1.504-1.705,1.951
						c-0.765,0.441-1.657,0.68-2.503,0.581c-0.845-0.073-1.643-0.418-2.279-1.083c0.375-0.323,0.708-0.494,1.017-0.705
						c0.3-0.227,0.596-0.346,0.846-0.534c0.531-0.295,0.943-0.598,1.38-0.833l1.376-0.804L248.607,211.861z"/>
				</g>
				<g>
					<path fill="#717070" d="M255.607,212.986c-0.528,1.356-1.278,2.493-2.097,3.556c-0.829,1.054-1.745,2.019-2.747,2.894
						c-1,0.877-2.081,1.668-3.272,2.334c-0.593,0.332-1.217,0.633-1.882,0.873c-0.665,0.211-1.38,0.47-2.128,0.382
						c0.931-1.066,1.646-2.128,2.539-3.1c0.869-0.972,1.787-1.893,2.769-2.748c0.982-0.854,2.02-1.652,3.135-2.372
						C253.047,214.095,254.226,213.44,255.607,212.986z"/>
				</g>
				<g>
					<path fill="#717070" d="M261.857,184.734c-0.037,2.483-0.354,4.88-0.724,7.262c-0.387,2.377-0.872,4.724-1.43,7.051
						c-0.551,2.328-1.186,4.632-1.88,6.922c-0.689,2.3-1.464,4.538-2.216,6.891c-0.503-2.453-0.325-4.947-0.095-7.361
						c0.271-2.42,0.714-4.802,1.275-7.151c0.567-2.348,1.255-4.663,2.071-6.941C259.693,189.134,260.616,186.886,261.857,184.734z"
						/>
				</g>
				<g>
					<path fill="#717070" d="M254.357,175.234c1.05-0.764,2.424-0.983,3.759-0.699c1.343,0.278,2.616,1.157,3.413,2.305
						c0.849,1.145,1.108,2.487,1.205,3.74c-0.024,0.631-0.065,1.255-0.195,1.859c-0.187,0.603-0.365,1.191-0.681,1.752
						c-0.351-0.569-0.565-1.111-0.787-1.637c-0.242-0.519-0.467-1.012-0.647-1.5c-0.473-0.918-0.824-1.809-1.349-2.491
						c-0.5-0.7-1.052-1.297-1.817-1.84C256.492,176.169,255.544,175.707,254.357,175.234z"/>
				</g>
				<g>
					<path fill="#717070" d="M254.732,175.109c-1.408,1.962-3.212,3.551-5.135,4.968c-1.946,1.385-4.052,2.588-6.339,3.419
						c-2.28,0.828-4.708,1.388-7.188,1.372c-2.47-0.052-4.969-0.657-6.964-2.009c2.417,0.155,4.604,0.043,6.77-0.342
						c2.161-0.4,4.251-1.083,6.333-1.831c2.085-0.752,4.129-1.689,6.196-2.636L254.732,175.109z"/>
				</g>
			</g>
			<path fill="#303031" d="M231.356,217.361c0,0,8-6.25,12.875-1.249c0,0,2.625,4.999,0,7.499c0,0-3.083,1.751-5.854-1.126
				C238.377,222.485,230.73,221.237,231.356,217.361z"/>
		</g>
		<g>
			<g>
				<path fill="#EEEEEE" d="M129.016,135.732c0,0-30.589,0.325-24.406,35.794c0,0,22.453,20.501,9.111,52.718
					c0,0-0.825,2.603,2.679,2.603c0,0,25.307,7.485,29.863,12.365c0,0,6.432,0.645,6.508,9.436c0.011,1.302,0.011,1.302,0.011,1.302
					s-0.011,3.579,4.219,0.651c0,0,2.278,0,0-4.882l-4.556-12.04c0,0-6.182-2.928-11.715-2.603c0,0-18.223-5.532-20.175-9.763
					c0,0-0.975-4.555,2.929-7.159c0,0,21.152-19.525,17.246-37.422c0,0,33.193,31.239,61.502,26.358c0,0-1.183,23.224-16.802,44.048
					c0,0-6.952,6.065-6.301,8.668c0,0,4.231,4.23,2.929,18.874c0,0,3.579,3.254,6.183,2.929l5.532-6.509
					c0,0-7.974,1.028-7.071-12.691c0,0-0.088-7.159,12.278-23.754c0,0,24.08-30.264,25.708-41.327c0,0,23.104-23.43,11.063-41.328
					c0,0-17.175-32.267-20.175-39.375c-1.88-4.453-4.555-18.549,2.278-19.199c0,0,5.206-1.952,8.46,3.905
					c0,0,7.604,15.945,12.913,14.644c0,0,5.961,0.325,5.961-2.604c0,0,4.231,1.951,8.46,0.651c0,0-7.485-6.183-3.905-9.762
					c0,0-18.875-0.326-20.981-25.206c0,0-5.378-19.375-19.045-12.542c0,0-21.152,17.247-20.501,52.065
					c0,0,0.976,14.319,3.905,19.201c0,0-0.681,23.11-26.684,21.801c-5.675-0.285-10.081-1.924-19.85-11.063
					C143.002,141.163,138.453,138.335,129.016,135.732z"/>
				<g>
					<g>
						<path fill="#717070" d="M129.016,135.732c2.305-0.322,4.622,0.148,6.813,0.793c2.193,0.684,4.27,1.678,6.22,2.855
							c1.962,1.165,3.747,2.589,5.409,4.126c0.829,0.771,1.576,1.635,2.336,2.468c0.704,0.897,1.401,1.792,2,2.774
							c-1.054-0.494-2.001-1.085-2.957-1.655c-0.962-0.561-1.897-1.143-2.823-1.723c-1.867-1.14-3.673-2.326-5.522-3.428
							c-1.841-1.113-3.681-2.215-5.575-3.251C133.018,137.657,131.11,136.646,129.016,135.732z"/>
					</g>
					<g>
						<path fill="#717070" d="M193.122,133.78c0.356,3.224-0.224,6.539-1.431,9.625c-1.198,3.098-3.206,5.96-5.821,8.141
							c-0.647,0.554-1.352,1.03-2.052,1.511c-0.737,0.421-1.46,0.868-2.237,1.203c-1.529,0.718-3.139,1.242-4.776,1.531
							c-3.262,0.635-6.584,0.564-9.725-0.182c3.188-0.502,6.252-1.095,9.121-2.08c0.726-0.222,1.403-0.561,2.105-0.815
							c0.666-0.342,1.362-0.609,1.996-0.996c1.304-0.699,2.53-1.522,3.647-2.474c2.259-1.876,4.128-4.213,5.638-6.842
							C191.067,139.756,192.241,136.873,193.122,133.78z"/>
					</g>
					<g>
						<path fill="#717070" d="M197.678,143.542c-1.103-0.623-2.3-0.623-3.146-0.14c-0.428,0.26-0.84,0.521-1.173,0.953
							c-0.165,0.213-0.365,0.349-0.511,0.592l-0.457,0.679c-0.333,0.409-0.549,0.968-0.83,1.444
							c-0.28,0.477-0.515,1.003-0.736,1.538c-0.495,1.029-0.901,2.127-1.317,3.224c-0.823,2.195-1.618,4.441-2.411,6.712
							c-0.416,1.129-0.874,2.254-1.274,3.403c-0.456,1.135-0.902,2.276-1.485,3.398c-0.077-2.49,0.033-4.967,0.476-7.395
							c0.382-2.437,1.008-4.844,1.893-7.189l0.713-1.745c0.248-0.576,0.578-1.139,0.878-1.7c0.303-0.56,0.61-1.12,1.026-1.642
							c0.401-0.526,0.73-1.069,1.248-1.537c0.477-0.479,0.941-0.96,1.573-1.317c0.553-0.4,1.271-0.671,1.965-0.822
							C195.58,141.74,197.067,142.436,197.678,143.542z"/>
					</g>
					<g>
						<path fill="#717070" d="M208.742,150.701c2.704,0.403,5.312,1.409,7.745,2.72c2.426,1.332,4.692,3.016,6.64,5.036
							c0.499,0.493,0.984,1.002,1.416,1.557c0.445,0.544,0.898,1.084,1.31,1.653c0.777,1.173,1.584,2.333,2.175,3.614
							c1.337,2.483,2.108,5.217,2.639,7.938l-0.101-0.268c0.385,0.895,0.618,1.706,0.781,2.594c0.155,0.873,0.249,1.761,0.207,2.651
							c-0.06,0.889-0.218,1.777-0.548,2.595c-0.323,0.823-0.844,1.541-1.439,2.126c0.343-0.773,0.596-1.538,0.676-2.325
							c0.062-0.787,0.051-1.559-0.089-2.322c-0.147-0.76-0.34-1.507-0.622-2.227c-0.282-0.702-0.611-1.454-0.964-2.037l-0.008-0.013
							l-0.093-0.256c-0.89-2.445-1.744-4.87-3.043-7.08c-0.562-1.151-1.328-2.176-2.004-3.258c-0.363-0.525-0.784-1.007-1.16-1.524
							c-0.369-0.524-0.797-0.999-1.228-1.473c-1.692-1.919-3.554-3.733-5.633-5.322C213.341,153.461,211.125,152.01,208.742,150.701
							z"/>
					</g>
					<g>
						<path fill="#717070" d="M140.731,176.734c4.713,3.329,9.451,6.531,14.266,9.588c4.828,3.03,9.72,5.932,14.788,8.454
							c2.509,1.312,5.092,2.459,7.699,3.532c2.592,1.119,5.268,2,7.961,2.811c5.401,1.594,11.023,2.398,16.789,1.973
							c-5.55,1.673-11.644,1.536-17.349,0.3c-5.76-1.167-11.236-3.357-16.449-5.938c-2.584-1.342-5.128-2.753-7.592-4.288
							c-2.442-1.569-4.861-3.169-7.168-4.921C149.042,184.776,144.631,181.002,140.731,176.734z"/>
					</g>
					<g>
						<path fill="#717070" d="M237.545,155.078c1.081,1.545,1.718,3.375,2.168,5.223c0.453,1.863,0.583,3.788,0.565,5.712
							c-0.06,3.859-1.076,7.652-2.581,11.155c-1.452,3.554-3.64,6.705-5.968,9.658c-1.24,1.418-2.537,2.783-3.853,4.107
							c-1.427,1.225-2.839,2.448-4.335,3.56c1.024-1.584,2.131-3.056,3.225-4.527c1.029-1.521,2.039-3.041,3.076-4.524
							c1.854-3.111,3.763-6.161,5.101-9.46c1.408-3.257,2.497-6.643,3.011-10.155c0.205-1.754,0.403-3.539,0.307-5.332
							C238.227,158.695,238.016,156.887,237.545,155.078z"/>
					</g>
					<g>
						<path fill="#717070" d="M215.575,112.628c2.234,2.998,4.204,6.131,6.082,9.312c1.894,3.172,3.654,6.413,5.341,9.692
							c1.68,3.282,3.281,6.604,4.751,9.994c1.486,3.381,2.877,6.811,4.002,10.377c-2.237-2.996-4.209-6.129-6.086-9.31
							c-1.893-3.173-3.654-6.413-5.337-9.694c-1.676-3.284-3.278-6.606-4.747-9.996
							C218.097,119.621,216.704,116.192,215.575,112.628z"/>
					</g>
					<g>
						<path fill="#717070" d="M216.093,93.997c-0.959,1.532-1.113,3.122-1.215,4.689c-0.073,1.573,0.038,3.158,0.187,4.77
							l0.288,2.438c0.136,0.818,0.191,1.65,0.322,2.486c0.128,0.834,0.186,1.692,0.283,2.554c0.079,0.868,0.169,1.739,0.134,2.67
							c-1.153-1.412-2.034-2.972-2.7-4.627c-0.364-0.816-0.578-1.691-0.835-2.55c-0.223-0.871-0.358-1.771-0.477-2.67
							c-0.167-1.814-0.079-3.708,0.49-5.523c0.267-0.904,0.719-1.781,1.279-2.55C214.457,94.945,215.174,94.236,216.093,93.997z"/>
					</g>
					<g>
						<path fill="#717070" d="M204.186,81.063c0.667,1.448,1.413,2.839,2.226,4.171c0.81,1.331,1.722,2.584,2.72,3.706
							c1.024,1.091,2.144,2.07,3.386,2.644c1.238,0.59,2.543,0.742,3.829,0.517l-0.165,0.036c0.809-0.228,1.472-0.327,2.223-0.398
							c0.732-0.059,1.478-0.069,2.226,0.031c1.491,0.175,3.025,0.694,4.312,1.64c0.643,0.467,1.216,1.027,1.701,1.643
							c0.244,0.308,0.452,0.635,0.653,0.964c0.187,0.333,0.382,0.704,0.504,0.96c0.57,1.138,1.158,2.286,1.759,3.42
							c0.59,1.142,1.215,2.264,1.86,3.37c0.62,1.123,1.297,2.207,1.991,3.274c0.693,1.068,1.443,2.092,2.278,3.031
							c0.857,0.886,1.788,1.827,3.13,1.954c-0.641,0.202-1.381,0.108-2.033-0.123c-0.664-0.224-1.279-0.563-1.847-0.951
							c-1.151-0.767-2.133-1.72-3.064-2.699c-0.922-0.989-1.748-2.049-2.555-3.118c-0.782-1.086-1.51-2.203-2.219-3.332
							c-0.697-1.137-1.354-2.29-1.963-3.486c-0.165-0.332-0.281-0.536-0.414-0.773c-0.142-0.228-0.291-0.448-0.45-0.656
							c-0.317-0.418-0.68-0.786-1.089-1.096c-0.814-0.625-1.826-1.007-2.925-1.16c-1.07-0.155-2.332-0.128-3.339,0.09l-0.165,0.036
							c-0.924,0.105-1.872,0.082-2.791-0.102c-0.921-0.184-1.777-0.57-2.55-1.024c-1.558-0.921-2.74-2.213-3.686-3.581
							c-0.949-1.372-1.677-2.843-2.258-4.352C204.895,84.188,204.445,82.64,204.186,81.063z"/>
					</g>
					<g>
						<path fill="#717070" d="M234.775,96.357c1.191,0.483,2.29,1.084,3.396,1.676l0.276,0.148l-0.004,0.636
							c-0.011,1.648,0.379,3.369,1.087,4.726c0.72,1.379,1.807,2.476,3.168,3.343c1.371,0.85,2.96,1.515,4.662,2.041
							c1.698,0.559,3.493,0.961,5.349,1.511c-1.856,0.548-3.782,0.721-5.74,0.62c-1.95-0.116-3.951-0.612-5.791-1.635
							c-1.827-1.025-3.432-2.733-4.184-4.78c-0.758-2.056-0.737-4.2-0.031-6.191l0.272,0.784
							C236.389,98.31,235.536,97.392,234.775,96.357z"/>
					</g>
					<g>
						<path fill="#717070" d="M245.188,103.516c-0.64-0.543-0.89-1.27-0.837-2.063c0.045-0.777,0.6-1.724,1.507-2.144
							c0.897-0.424,1.774-0.297,2.444-0.014c0.312,0.181,0.614,0.376,0.858,0.64c0.228,0.295,0.445,0.577,0.584,0.977
							c-0.385,0.221-0.694,0.324-0.991,0.439c-0.29,0.116-0.538,0.221-0.767,0.281c-0.428,0.188-0.696,0.316-0.818,0.375
							c-0.111,0.054-0.285,0.051-0.629,0.306C246.2,102.558,245.786,102.952,245.188,103.516z"/>
					</g>
					<g>
						<path fill="#717070" d="M228.763,75.056c0.842,2.901,1.808,5.658,2.955,8.295c1.174,2.622,2.528,5.115,4.222,7.329
							c1.67,2.232,3.68,4.16,5.994,5.759c2.323,1.595,4.969,2.765,7.81,3.823c-3.018,0.181-6.151-0.412-8.973-1.791
							c-2.841-1.345-5.34-3.462-7.223-5.982c-1.906-2.513-3.24-5.394-4.03-8.366C228.72,81.159,228.367,78.075,228.763,75.056z"/>
					</g>
					<g>
						<path fill="#717070" d="M249.744,100.262c-0.163,1.158-0.003,2,0.246,2.72c0.271,0.717,0.595,1.367,1.052,2.065
							c0.081,0.182,0.224,0.35,0.34,0.527c0.116,0.181,0.217,0.366,0.345,0.549c0.271,0.356,0.487,0.756,0.759,1.148
							c0.273,0.388,0.506,0.829,0.77,1.269c0.252,0.455,0.518,0.909,0.718,1.484c-1.16-0.096-2.193-0.478-3.121-1.052
							c-0.476-0.268-0.882-0.656-1.301-1.017c-0.387-0.409-0.761-0.839-1.067-1.343c-0.631-0.97-0.999-2.265-0.843-3.537
							C247.802,101.812,248.599,100.613,249.744,100.262z"/>
					</g>
					<g>
						<path fill="#717070" d="M209.718,62.514c-4.425,4.728-7.943,10.117-10.847,15.751c-1.413,2.84-2.706,5.733-3.74,8.721
							c-1.053,2.977-1.984,6.003-2.608,9.101c-0.671,3.084-1.213,6.206-1.472,9.362c-0.189,1.572-0.248,3.158-0.345,4.741
							c-0.005,1.586-0.112,3.175-0.059,4.766c0.076,6.368,0.78,12.75,1.824,19.149c-2.253-6.082-3.641-12.513-4.163-19.044
							c-0.57-6.532-0.089-13.172,1.286-19.62c1.439-6.435,3.851-12.666,7.236-18.306C200.217,71.526,204.441,66.333,209.718,62.514z
							"/>
					</g>
					<g>
						<path fill="#717070" d="M128.286,135.767c-4.072,0.923-7.914,2.376-11.345,4.384c-3.396,2.046-6.352,4.714-8.333,8.039
							c-1.009,1.645-1.823,3.415-2.439,5.274c-0.59,1.868-1.038,3.802-1.282,5.793c-0.544,3.977-0.469,8.088-0.276,12.269
							c-1.416-3.94-2.185-8.158-2.058-12.452l0.055-1.613l0.206-1.608c0.057-0.539,0.152-1.073,0.277-1.604
							c0.119-0.531,0.211-1.069,0.356-1.596c0.571-2.113,1.462-4.154,2.613-6.043c1.182-1.867,2.615-3.591,4.291-5.021
							c1.688-1.411,3.531-2.623,5.51-3.505C119.797,136.305,124.095,135.452,128.286,135.767z"/>
					</g>
					<g>
						<path fill="#717070" d="M104.61,171.526c3.754,2.957,6.755,6.84,9.114,11.045c1.202,2.1,2.161,4.336,3.006,6.614
							c0.808,2.293,1.393,4.663,1.835,7.057c0.814,4.803,0.801,9.745-0.046,14.506c-0.853,4.759-2.457,9.351-4.799,13.496
							c1.182-4.612,2.085-9.195,2.477-13.795c0.133-2.303,0.282-4.597,0.129-6.887c-0.083-2.286-0.29-4.569-0.717-6.815
							c-0.732-4.512-2.124-8.908-3.972-13.134C109.76,179.398,107.452,175.331,104.61,171.526z"/>
					</g>
					<g>
						<path fill="#717070" d="M132.921,157.209c3.935,3.645,6.736,8.521,8.323,13.759c0.816,2.623,1.226,5.373,1.353,8.132
							c0.098,2.764-0.181,5.534-0.713,8.243c-0.589,2.702-1.516,5.306-2.619,7.813c-0.613,1.225-1.195,2.464-1.911,3.625
							c-0.352,0.583-0.664,1.191-1.048,1.752l-1.159,1.676c-3.121,4.44-6.952,8.293-11.211,11.515
							c3.393-4.123,6.617-8.3,9.247-12.79c2.628-4.476,4.724-9.227,5.769-14.217c1.076-4.973,1.092-10.146,0.033-15.171
							C137.901,166.532,135.885,161.638,132.921,157.209z"/>
					</g>
					<g>
						<path fill="#717070" d="M120.555,221.314c1.74,0.9,3.437,1.581,5.13,2.319l5.054,2.194c1.678,0.753,3.363,1.515,5.031,2.365
							c0.841,0.41,1.672,0.855,2.499,1.332c0.827,0.479,1.661,0.95,2.461,1.553c-1.98,0.04-3.89-0.242-5.763-0.667
							c-1.864-0.453-3.693-1.051-5.449-1.843c-1.762-0.771-3.452-1.743-5.02-2.904C122.964,224.486,121.443,223.125,120.555,221.314
							z"/>
					</g>
					<g>
						<path fill="#717070" d="M116.401,226.847c2.774,0.166,5.459,0.69,8.114,1.32c2.648,0.652,5.254,1.464,7.81,2.422
							c2.554,0.963,5.056,2.1,7.461,3.447c2.366,1.367,4.773,2.946,6.477,5.176c-2.475-1.228-4.952-2.114-7.473-3.037
							c-2.512-0.912-5.02-1.83-7.527-2.78c-2.509-0.944-5.007-1.935-7.492-2.997C121.291,229.321,118.818,228.211,116.401,226.847z"
							/>
					</g>
					<g>
						<path fill="#717070" d="M146.263,239.212c1.214-0.55,2.686-0.259,3.862,0.422c1.193,0.698,2.077,1.817,2.624,2.995
							c0.31,0.589,0.458,1.209,0.63,1.825c0.114,0.621,0.193,1.245,0.204,1.865c-0.028,0.621-0.056,1.238-0.186,1.844
							c-0.165,0.608-0.322,1.205-0.616,1.787c-0.372-0.56-0.607-1.105-0.849-1.639c-0.243-0.532-0.482-1.042-0.667-1.555
							c-0.222-0.498-0.419-0.988-0.607-1.469c-0.231-0.454-0.378-0.949-0.617-1.37c-0.412-0.889-0.846-1.717-1.425-2.482
							C148.03,240.677,147.343,239.918,146.263,239.212z"/>
					</g>
					<g>
						<path fill="#717070" d="M152.446,233.68c1.21,1.153,2.129,2.456,2.948,3.806c0.807,1.356,1.488,2.775,2.039,4.252
							c0.551,1.477,0.977,3.014,1.188,4.633c0.097,0.811,0.154,1.639,0.053,2.511c-0.086,0.446-0.123,0.879-0.384,1.344
							c-0.126,0.228-0.337,0.454-0.612,0.55c-0.14,0.009-0.278,0.014-0.386-0.019c-0.108-0.047-0.205-0.101-0.29-0.154l0.286-0.08
							c0.081-0.041,0.133-0.108,0.176-0.147c0.052-0.126,0.051-0.236,0.029-0.385c-0.038-0.286-0.159-0.644-0.284-0.967
							c-0.257-0.672-0.564-1.357-0.865-2.043c-0.6-1.374-1.192-2.769-1.72-4.197c-0.53-1.428-1.005-2.887-1.397-4.39
							C152.844,236.886,152.526,235.346,152.446,233.68z"/>
					</g>
				</g>
			</g>
			<path fill="#303031" d="M151.469,250.602c0,0-1.952,8.459,7.81,11.713c0,0,4.231,3.581,2.603-15.619
				C161.883,246.696,156.351,245.72,151.469,250.602z"/>
			<g>
				<path fill="#303031" d="M225.571,72.932c-1.06,0.465-1.859,0.736-2.556,0.97l-1.673,0.553c-0.452,0.139-0.816,0.233-1.387,0.471
					c-0.603,0.209-1.244,0.66-2.296,1.227c-0.553-0.996-0.64-2.142-0.157-3.196c0.437-1.055,1.473-1.983,2.611-2.308
					c1.133-0.356,2.275-0.256,3.221,0.135C224.277,71.195,225.101,71.849,225.571,72.932z"/>
			</g>
			<g>
				<path fill="#303031" d="M225.94,82.684c0.078,1.135-0.472,2.091-1.301,2.742c-0.835,0.653-2.016,0.947-3.114,0.788
					c-1.096-0.171-2.028-0.74-2.666-1.475c-0.309-0.378-0.542-0.807-0.722-1.255c-0.126-0.493-0.243-0.965-0.202-1.536
					c0.598-0.047,1.038,0.004,1.468,0.034c0.434,0.004,0.795,0.061,1.129,0.093c0.667,0.059,1.156,0.104,1.574,0.182
					c0.418,0.049,0.798,0.16,1.386,0.252C224.086,82.607,224.823,82.667,225.94,82.684z"/>
			</g>
			<g>
				<path fill="#303031" d="M222.536,76.244c0.505,0.572,0.83,1.138,1.134,1.699c0.292,0.561,0.532,1.116,0.741,1.665
					c0.219,0.542,0.4,1.072,0.593,1.585c0.211,0.516,0.342,1.004,0.937,1.491c-0.164,0.07-0.36,0.129-0.568,0.153
					c-0.192-0.007-0.395-0.044-0.607-0.087c-0.179-0.075-0.361-0.163-0.55-0.258c-0.166-0.104-0.315-0.227-0.468-0.354
					c-0.566-0.524-0.943-1.159-1.2-1.808c-0.246-0.651-0.377-1.327-0.398-2.01C222.142,77.636,222.217,76.942,222.536,76.244z"/>
			</g>
		</g>
		<g>
			<path fill="#717070" d="M223.605,197.985c-1.966,4.831-4.342,9.49-6.946,14.017c-2.6,4.533-5.486,8.909-8.649,13.099
				c-0.775,1.069-1.592,2.064-2.411,3.069c-0.187,0.237-0.448,0.536-0.573,0.721l-0.568,0.786l-1.131,1.577l-4.509,6.321
				l-4.429,6.352c-0.725,1.062-1.437,2.131-2.112,3.208l-0.971,1.612c-0.306,0.522-0.607,1.1-0.749,1.504l-0.069,0.197l-0.029,0.052
				c-0.767,1.38-1.414,2.975-1.948,4.535c-0.533,1.578-0.919,3.205-1.11,4.856c-0.206,1.65-0.179,3.328,0.137,4.973
				c0.321,1.642,0.971,3.238,1.939,4.676c-0.592-0.628-1.152-1.305-1.615-2.056c-0.448-0.756-0.836-1.56-1.125-2.403
				c-0.585-1.687-0.803-3.491-0.804-5.279c0.024-1.79,0.283-3.569,0.69-5.306c0.422-1.75,0.988-3.399,1.772-5.097l-0.098,0.249
				c0.229-0.843,0.52-1.429,0.817-2.055c0.294-0.618,0.618-1.199,0.944-1.779c0.656-1.153,1.336-2.276,2.028-3.389
				c1.374-2.232,2.843-4.389,4.321-6.536c1.472-2.152,2.978-4.277,4.531-6.367c0.798-1.054,1.487-2.082,2.392-3.153
				c0.824-1.004,1.687-1.991,2.482-2.99c3.228-3.997,6.296-8.145,9.233-12.399C217.99,206.73,220.837,202.399,223.605,197.985z"/>
		</g>
		<g>
			<path fill="#717070" d="M179.129,255.808c0.654,0.538,1.195,1.218,1.644,1.931c0.477,0.708,0.839,1.472,1.192,2.245
				c0.68,1.555,1.107,3.197,1.383,4.851c0.291,1.656,0.366,3.329,0.365,4.993c-0.023,0.831-0.079,1.66-0.143,2.486
				c-0.101,0.823-0.218,1.643-0.351,2.459l-0.321-0.896c0.307,0.401,0.715,0.828,1.089,1.234c0.385,0.41,0.8,0.785,1.229,1.142
				c0.424,0.367,0.883,0.676,1.374,0.939c0.493,0.253,1.034,0.432,1.652,0.419c-0.526,0.332-1.216,0.422-1.863,0.365
				c-0.657-0.05-1.282-0.25-1.885-0.477c-0.597-0.242-1.158-0.549-1.703-0.877c-0.555-0.333-1.041-0.691-1.57-1.135l-0.288-0.242
				l-0.032-0.655c-0.039-0.797-0.061-1.59-0.069-2.38c-0.039-0.789-0.053-1.575-0.073-2.359c-0.07-1.565-0.11-3.127-0.238-4.676
				c-0.109-1.552-0.243-3.103-0.451-4.656C179.853,258.964,179.609,257.407,179.129,255.808z"/>
		</g>
		<g>
			<path fill="#717070" d="M185.431,247.14c2.271-4.309,4.37-8.573,6.339-12.902c1.956-4.326,3.758-8.712,5.422-13.171
				c1.567-4.461,2.891-9.049,3.628-13.709c0.352-2.329,0.551-4.688,0.357-7.02c-0.21-2.303-0.843-4.69-2.597-6.405
				c2.054,1.361,3.19,3.837,3.686,6.236c0.526,2.437,0.564,4.934,0.414,7.387c-0.333,4.919-1.414,9.717-2.874,14.39
				c-0.752,2.348-1.54,4.61-2.445,6.898c-0.989,2.235-1.966,4.48-3.185,6.602c-1.172,2.144-2.483,4.212-3.926,6.183
				C188.81,243.6,187.24,245.49,185.431,247.14z"/>
		</g>
		<path fill="#303031" d="M184.602,276.365c0,0,8.251-10.001,12.126-4.501c0,0,3.5,4.376,2.25,7.625
			C198.978,279.49,186.852,280.24,184.602,276.365z"/>
	</g>
	<g>
		<path fill="#4A494A" d="M208.412,61.383c0,0,7.208,2.218,6.469,7.024c0,0-2.111,10.72,0.053,12.938c0,0-0.422-7.947,2.165-9.981
			c0,0,1.664-4.62,1.109-5.729c0,0,7.024,4.62,9.242,8.872l0.414,5.545l5.131-13.678l-18.482-8.316L208.412,61.383z"/>
		<g>
			<g>
				<path fill="#2D2D2E" d="M210.076,62.122c1.576,0.126,3.177,0.96,4.209,2.374c0.481,0.711,0.906,1.522,1.049,2.384
					c0.188,0.856,0.206,1.722,0.14,2.571l-0.011,0.067c-0.16,1.051-0.314,2.151-0.433,3.228c-0.121,1.082-0.245,2.163-0.289,3.239
					c-0.065,1.076-0.069,2.148,0.053,3.192c0.152,1.019,0.397,2.088,1.381,2.722c-0.575-0.055-1.134-0.405-1.539-0.867
					c-0.397-0.469-0.702-1.012-0.91-1.574c-0.432-1.124-0.607-2.298-0.699-3.453c-0.071-1.159-0.064-2.312,0.034-3.453
					c0.103-1.146,0.251-2.262,0.5-3.408l-0.011,0.067c0.022-0.343,0.081-0.689,0.104-1.032c-0.015-0.335,0.035-0.69-0.031-1.017
					c-0.048-0.678-0.231-1.326-0.52-1.945c-0.271-0.632-0.702-1.199-1.212-1.727C211.369,62.977,210.766,62.506,210.076,62.122z"/>
			</g>
			<g>
				<path fill="#2D2D2E" d="M213.957,59.719c1.421,0.309,2.787,1.225,3.624,2.573c0.423,0.664,0.733,1.426,0.871,2.21
					c0.183,0.785,0.153,1.581,0.106,2.365l0.008-0.14c0.029,0.622,0.022,1.19-0.025,1.785c-0.039,0.59-0.124,1.181-0.249,1.776
					c-0.118,0.596-0.301,1.192-0.573,1.791c-0.277,0.591-0.649,1.205-1.282,1.698l0.316-0.447c-0.256,0.679-0.493,1.426-0.689,2.154
					c-0.218,0.73-0.395,1.468-0.542,2.21c-0.156,0.741-0.236,1.486-0.252,2.232c0.011,0.737,0.083,1.509,0.577,2.156
					c-0.721-0.403-1.151-1.244-1.355-2.041c-0.227-0.812-0.286-1.651-0.293-2.474c0.014-0.822,0.095-1.638,0.21-2.445
					c0.14-0.808,0.308-1.583,0.533-2.401l0.06-0.217l0.257-0.23c0.499-0.448,0.877-1.424,1.085-2.41
					c0.111-0.499,0.195-1.016,0.259-1.54c0.058-0.519,0.114-1.069,0.138-1.566l0.006-0.126l0.002-0.014
					c0.1-0.634,0.158-1.273,0.124-1.903c-0.004-0.641-0.183-1.247-0.387-1.857C216.03,61.657,215.141,60.555,213.957,59.719z"/>
			</g>
			<g>
				<path fill="#2D2D2E" d="M218.208,64.895c1.641,0.055,3.231,0.512,4.735,1.158c1.504,0.654,2.93,1.537,4.18,2.653
					c1.246,1.123,2.262,2.528,2.953,4.065c0.705,1.541,0.894,3.273,0.7,4.877c-0.639-1.52-1.21-2.906-2.073-4.135
					c-0.852-1.221-1.826-2.32-2.923-3.326C223.56,68.186,220.976,66.579,218.208,64.895z"/>
			</g>
			<g>
				<path fill="#2D2D2E" d="M218.947,65.635c1.037,0.463,1.924,1.072,2.778,1.715c0.844,0.652,1.632,1.359,2.372,2.113
					c0.741,0.753,1.431,1.556,2.066,2.413c0.626,0.865,1.216,1.766,1.656,2.814c-1.039-0.461-1.927-1.07-2.78-1.714
					c-0.844-0.652-1.632-1.359-2.371-2.115c-0.739-0.755-1.429-1.558-2.064-2.415C219.98,67.581,219.388,66.681,218.947,65.635z"/>
			</g>
		</g>
	</g>
	<path fill="#EEEEEE" d="M208.413,42.854c0,0,8.818,9.887,0,22.178c0,0-2.672,3.742-5.076-1.602c0,0,3.444-2.405,4.29-18.437
		C207.627,44.992,205.475,42.054,208.413,42.854z"/>
	<path opacity="0.7" fill="#B5B4B4" d="M208.413,42.854c0,0,1.336,13.093-0.801,16.834c0,0-1.336,5.611,0,5.611
		c0,0,2.196,1.901,2.464-3.177C210.076,62.122,216.175,53.126,208.413,42.854z"/>
</g>
</svg>
